<svg width="36" height="36" viewBox="0 0 36 36" fill="none" xmlns="http://www.w3.org/2000/svg">
<circle cx="18" cy="18" r="18" fill="white"/>
<path d="M9 11.0661C9 10.4768 9.47786 10 10.0661 10H18.6482C18.931 10 19.2021 10.1123 19.402 10.3122C19.602 10.5122 19.7143 10.7833 19.7143 11.0661C19.7143 11.3488 19.602 11.62 19.402 11.8199C19.2021 12.0198 18.931 12.1321 18.6482 12.1321H10.0661C9.78333 12.1321 9.51217 12.0198 9.31225 11.8199C9.11232 11.62 9 11.3488 9 11.0661ZM9 17.5C9 16.9107 9.47786 16.4339 10.0661 16.4339H29.3625C29.6452 16.4339 29.9164 16.5462 30.1163 16.7462C30.3163 16.9461 30.4286 17.2173 30.4286 17.5C30.4286 17.7827 30.3163 18.0539 30.1163 18.2538C29.9164 18.4538 29.6452 18.5661 29.3625 18.5661H10.0661C9.78333 18.5661 9.51217 18.4538 9.31225 18.2538C9.11232 18.0539 9 17.7827 9 17.5ZM10.0661 22.8679C9.78333 22.8679 9.51217 22.9802 9.31225 23.1801C9.11232 23.38 9 23.6512 9 23.9339C9 24.2167 9.11232 24.4878 9.31225 24.6878C9.51217 24.8877 9.78333 25 10.0661 25H22.9339C23.2167 25 23.4878 24.8877 23.6878 24.6878C23.8877 24.4878 24 24.2167 24 23.9339C24 23.6512 23.8877 23.38 23.6878 23.1801C23.4878 22.9802 23.2167 22.8679 22.9339 22.8679H10.0661Z" fill="black"/>
</svg>
