<svg width="50" height="42" viewBox="0 0 50 42" fill="none" xmlns="http://www.w3.org/2000/svg">
<path d="M0 21C0 9.40202 9.40202 0 21 0H50V42H21C9.40202 42 0 32.598 0 21V21Z" fill="#007955"/>
<path d="M24.3009 14.954L24.3007 14.9538C24.17 14.8233 23.9929 14.75 23.8083 14.75C23.6236 14.75 23.4465 14.8233 23.3159 14.9538L23.3158 14.9539L17.9539 20.3158L17.9538 20.3159C17.8233 20.4465 17.75 20.6236 17.75 20.8083C17.75 20.9929 17.8233 21.17 17.9538 21.3007L17.9539 21.3008L23.3158 26.6627L23.3156 26.6628L23.3221 26.6688C23.4542 26.7919 23.6289 26.8589 23.8094 26.8557C23.99 26.8525 24.1622 26.7794 24.2899 26.6517C24.4175 26.524 24.4907 26.3518 24.4938 26.1713C24.497 25.9908 24.43 25.816 24.3069 25.684L24.3071 25.6838L24.3008 25.6776L20.129 21.5051L31.5532 21.5051C31.738 21.5051 31.9152 21.4317 32.0459 21.301C32.1766 21.1703 32.25 20.9931 32.25 20.8083C32.25 20.6235 32.1766 20.4462 32.0459 20.3156C31.9152 20.1849 31.738 20.1115 31.5532 20.1115L20.129 20.1115L24.3008 15.9389L24.3009 15.9388C24.4314 15.8082 24.5047 15.6311 24.5047 15.4464C24.5047 15.2618 24.4314 15.0847 24.3009 14.954Z" fill="white" stroke="white" stroke-width="0.5"/>
</svg>
